# xmcd
#
# Track frame offsets:
#	150
#	15165
#	29192
#	40552
#	53380
#	65360
#	76715
#	86737
#	96837
#	106230
#	119227
#	130126
#	141883
#	152838
#	166076
#	177478
#	191508
#	208408
#	223226
#	236203
#	247546
#
# Disc length: 3496 seconds
#
# Revision: 1
# Processed by: cddbd v1.5.1PL0 Copyright (c) Steve Scherf et al.
# Submitted via: MusicWizard 6.0.2
#
DISCID=1e0da615
DTITLE=George Jones - At His Best - Super Hits
DYEAR=2001
DGENRE=Country
TTITLE0=He Stopped Loving Her Today
TTITLE1=Don't Do It Darlin' That Heart Belongs To Me
TTITLE2=Ruby, Don't Take Your Love To Town
TTITLE3=Saginaw, Michigan
TTITLE4=There Goes My Everything
TTITLE5=Apartment No. 9
TTITLE6=Your Angel Steps Out Of Heaven
TTITLE7=A Day In The Life Of A Fool
TTITLE8=Am I That Easy To Forget
TTITLE9=I Threw Away The Rose
TTITLE10=All My Friends Are Going To Be Strangers
TTITLE11=White Lightnin'
TTITLE12=Why Baby Why
TTITLE13=The Window Up Above
TTITLE14=A Picture Of Me (Without You)
TTITLE15=The Grand Tour
TTITLE16=Bartender's Blues
TTITLE17=He Stopped Loving Her Today
TTITLE18=Tennessee Whiskey
TTITLE19=The One I Loved Back Then (The Corvette Song)
TTITLE20=Who's Gonna Fill Their Shoes
EXTD=
EXTT0=
EXTT1=
EXTT2=
EXTT3=
EXTT4=
EXTT5=
EXTT6=
EXTT7=
EXTT8=
EXTT9=
EXTT10=
EXTT11=
EXTT12=
EXTT13=
EXTT14=
EXTT15=
EXTT16=
EXTT17=
EXTT18=
EXTT19=
EXTT20=
PLAYORDER=
